<svg xmlns="http://www.w3.org/2000/svg" viewBox="0 0 32 32" fill="none">
  <circle cx="16" cy="16" r="15" fill="#7C3AED"/>
  <path d="M16 6 C12 6, 9 9, 9 13 C9 16, 10 18.5, 11 21.5 C11.5 23, 12.5 25, 13 25 C14 25, 14.5 22.5, 15 21 C15.3 19.5, 15.5 18.5, 16 18.5 C16.5 18.5, 16.7 19.5, 17 21 C17.5 22.5, 18 25, 19 25 C19.5 25, 20.5 23, 21 21.5 C22 18.5, 23 16, 23 13 C23 9, 20 6, 16 6Z" fill="white"/>
  <path d="M11.5 12 Q16 10, 20.5 12" stroke="#C4B5FD" stroke-width="1.2" fill="none" stroke-linecap="round"/>
</svg>
