<svg xmlns="http://www.w3.org/2000/svg" viewBox="0 0 200 200" fill="none">
  <!-- Background circle -->
  <circle cx="100" cy="100" r="95" fill="#7C3AED"/>
  <!-- Tooth shape -->
  <path d="M100 35 C75 35, 55 55, 55 80 C55 100, 60 115, 68 135 C72 145, 78 155, 82 155 C88 155, 90 140, 92 130 C94 120, 96 115, 100 115 C104 115, 106 120, 108 130 C110 140, 112 155, 118 155 C122 155, 128 145, 132 135 C140 115, 145 100, 145 80 C145 55, 125 35, 100 35Z" fill="white"/>
  <!-- Gold accent arc -->
  <path d="M70 75 Q100 60, 130 75" stroke="#C4B5FD" stroke-width="4" fill="none" stroke-linecap="round"/>
  <!-- Small sparkle -->
  <circle cx="130" cy="55" r="3" fill="#C4B5FD"/>
  <circle cx="137" cy="48" r="2" fill="#C4B5FD" opacity="0.7"/>
</svg>
